<svg width="960" height="960" viewBox="0 0 960 960" fill="none" xmlns="http://www.w3.org/2000/svg">
<g filter="url(#filter0_d_435_1376)">
<g clip-path="url(#clip0_435_1376)">
<path fill-rule="evenodd" clip-rule="evenodd" d="M495.696 387.713C492.409 390.667 488.709 393.994 484.706 398.34C476.272 407.501 475.889 422.701 476.425 431.092H476.435C477.341 431.475 521.549 449.481 543.041 402.835C564.748 355.71 567.516 286.864 549.962 269.31C532.408 251.756 497.759 221.723 435.847 243.44C373.935 265.157 359.611 306.786 359.611 306.786C359.611 306.786 298.277 452.593 141.651 328.307C194.603 427.571 267.08 454.07 326.351 455.307C345.786 455.644 365.185 453.509 384.081 448.955C405.985 443.722 422.047 436.613 428.576 432.991C429.366 432.546 430.106 432.02 430.785 431.42C448.281 416.074 439.052 346.926 435.007 321.674C467.318 322.338 500.817 313.404 515.053 309.074C517.037 318.932 513.011 356.78 509.663 368.886C507.341 377.242 502.373 381.709 495.696 387.713ZM505.146 248.33C504.335 248.16 503.54 248.68 503.371 249.491C503.201 250.302 503.721 251.097 504.532 251.266C524.52 255.443 540.397 272.399 547.356 291.884C554.315 311.368 553.448 332.955 549.397 353.498C549.237 354.31 549.766 355.099 550.579 355.26C551.391 355.42 552.18 354.891 552.341 354.078C556.442 333.275 557.397 311.078 550.181 290.875C542.967 270.674 526.407 252.773 505.146 248.33Z" fill="#171717"/>
<path d="M698.309 491.551C698.309 491.551 764.816 508.644 767.82 567.091C770.569 620.599 760.889 620.452 738.71 641.246C738.709 641.229 738.705 641.213 738.7 641.197C738.435 638.929 729.5 564.244 703.8 569.162L700.282 519.5L698.309 491.551Z" fill="url(#paint0_linear_435_1376)"/>
<path d="M646.979 214.752L817.106 330.565L748.753 425.584L594.9 327.266L646.979 214.752ZM725.14 320.4L738.08 317.583L727.98 309.021L729.295 295.836L718.024 302.806L705.9 297.478L709.052 310.35L700.235 320.236L713.44 321.218L720.126 332.656L725.14 320.4Z" fill="url(#paint1_linear_435_1376)"/>
<path d="M738.08 317.587L725.14 320.404L720.123 332.657L713.437 321.219L700.232 320.237L709.049 310.351L705.897 297.479L718.022 302.81L729.293 295.84L727.978 309.025L738.08 317.587Z" fill="#171717"/>
<path d="M189.601 489C189.601 490.598 190.076 492.159 190.964 493.487C191.852 494.814 193.114 495.849 194.59 496.459C196.066 497.07 197.69 497.229 199.257 496.916C200.823 496.604 202.262 495.834 203.391 494.703C204.519 493.573 205.288 492.134 205.598 490.567C205.909 489 205.748 487.376 205.136 485.901C204.523 484.425 203.487 483.165 202.159 482.278C200.83 481.392 199.268 480.919 197.671 480.92C196.61 480.921 195.56 481.13 194.58 481.536C193.601 481.942 192.711 482.538 191.961 483.288C191.212 484.039 190.618 484.929 190.212 485.909C189.807 486.889 189.599 487.94 189.601 489V489ZM221.235 497.081C222.833 497.083 224.396 496.61 225.726 495.723C227.056 494.836 228.093 493.574 228.705 492.098C229.318 490.621 229.479 488.996 229.168 487.428C228.857 485.86 228.088 484.42 226.958 483.289C225.828 482.158 224.388 481.388 222.821 481.075C221.253 480.763 219.628 480.922 218.151 481.534C216.674 482.145 215.411 483.181 214.523 484.51C213.635 485.839 213.161 487.402 213.161 489C213.16 490.061 213.368 491.111 213.773 492.091C214.179 493.071 214.773 493.962 215.523 494.712C216.272 495.462 217.162 496.057 218.141 496.463C219.121 496.87 220.171 497.079 221.232 497.079L221.235 497.081ZM243.816 497.081C245.414 497.084 246.978 496.611 248.308 495.725C249.638 494.838 250.676 493.577 251.289 492.1C251.903 490.624 252.064 488.999 251.754 487.431C251.443 485.862 250.674 484.421 249.545 483.29C248.415 482.159 246.975 481.388 245.407 481.075C243.839 480.763 242.214 480.922 240.737 481.533C239.259 482.145 237.997 483.181 237.108 484.51C236.22 485.839 235.746 487.402 235.746 489C235.744 491.141 236.593 493.195 238.106 494.71C239.619 496.225 241.672 497.078 243.813 497.079L243.816 497.081ZM291.374 497.081L612.345 505.868V487.329L291.371 480.918L291.374 497.081ZM697.134 474.921L698.312 491.553L700.285 519.505L698.694 519.613L170.318 510.963L169.729 462.443L291.374 465.319L653.462 473.89L697.134 474.921Z" fill="url(#paint2_linear_435_1376)"/>
<path d="M589.7 701.54L617.082 662.032L677.031 714.009H678.877V745.132C678.877 747.877 677.787 750.508 675.846 752.449C673.905 754.39 671.274 755.48 668.529 755.48H519.256C516.512 755.48 513.88 754.39 511.939 752.449C509.999 750.508 508.908 747.877 508.908 745.132V709.62L552.284 648.701L589.7 701.54Z" fill="#171717"/>
<path d="M657.622 659.724C657.229 664.27 666.851 665.556 678.878 665.448V714.008H677.032L617.083 662.031L589.7 701.539L552.284 648.701L508.908 709.621V583.37C508.908 580.625 509.999 577.993 511.939 576.053C513.88 574.112 516.512 573.022 519.256 573.021H668.53C671.275 573.022 673.906 574.112 675.847 576.053C677.788 577.993 678.878 580.625 678.878 583.37V604.8L678.966 605.281C670.13 607.019 663.166 609.512 663.166 613.057C663.166 616.67 670.137 618.869 678.885 620.214L678.875 620.294V625.419L678.944 625.899C669.037 627.823 660.944 630.7 661.32 635C661.664 639.065 669.4 641.156 678.944 642.177L678.875 642.876V648.701L678.953 649.005C667.626 651.8 658 655.414 657.622 659.724ZM593.893 617.654C593.895 614.087 592.839 610.599 590.858 607.632C588.878 604.664 586.062 602.351 582.766 600.984C579.471 599.618 575.844 599.259 572.345 599.954C568.845 600.649 565.631 602.366 563.107 604.888C560.584 607.41 558.865 610.623 558.168 614.122C557.472 617.621 557.828 621.248 559.193 624.544C560.558 627.84 562.87 630.658 565.836 632.64C568.802 634.622 572.29 635.68 575.857 635.68C578.225 635.681 580.57 635.216 582.758 634.31C584.946 633.405 586.934 632.077 588.609 630.403C590.284 628.729 591.612 626.742 592.519 624.554C593.426 622.367 593.893 620.022 593.893 617.654V617.654Z" fill="url(#paint3_linear_435_1376)"/>
<path d="M495.929 442.108L496.066 448.952L496.479 448.942C496.479 448.942 571.665 447.204 653.459 473.88V473.889L291.37 465.318C291.37 465.318 321.728 455.353 326.352 455.353V455.301C345.787 455.638 365.186 453.503 384.082 448.949C405.982 443.716 422.048 436.607 428.582 432.985C429.371 432.54 430.112 432.013 430.791 431.414L476.791 438.964L495.929 442.108Z" fill="url(#paint4_linear_435_1376)"/>
<path d="M479.131 631.428H449.833C445.674 631.428 442.303 634.799 442.303 638.958V643.298C442.303 647.456 445.674 650.828 449.833 650.828H479.131C483.289 650.828 486.661 647.456 486.661 643.298V638.958C486.661 634.799 483.289 631.428 479.131 631.428Z" fill="url(#paint5_linear_435_1376)"/>
<path d="M299.362 594.552L283.87 609.652L287.522 630.986L268.377 620.913L249.222 630.986L252.874 609.652L237.381 594.552L258.794 591.44L268.377 572.039L277.949 591.44L299.362 594.552Z" fill="#171717"/>
<path d="M148.932 236.507L244.579 156.814L260.16 176.058L257.971 177.835L166.172 253.915L148.932 236.507Z" fill="url(#paint6_linear_435_1376)"/>
<path d="M229.311 489C229.31 490.597 228.836 492.158 227.948 493.485C227.061 494.813 225.799 495.847 224.324 496.458C222.848 497.069 221.225 497.228 219.659 496.917C218.092 496.605 216.654 495.836 215.525 494.707C214.395 493.577 213.626 492.139 213.315 490.572C213.003 489.006 213.162 487.383 213.773 485.907C214.384 484.432 215.418 483.17 216.746 482.283C218.073 481.395 219.634 480.921 221.231 480.92C222.292 480.919 223.344 481.128 224.324 481.533C225.305 481.939 226.196 482.534 226.946 483.285C227.697 484.035 228.292 484.926 228.698 485.907C229.104 486.888 229.312 487.939 229.311 489V489Z" fill="url(#paint7_linear_435_1376)"/>
<path d="M209.341 252.796L215.988 259.777L206.405 260.808L201.82 269.281L197.873 260.484L188.399 258.746L195.547 252.276L194.28 242.723L202.635 247.524L211.324 243.361L209.341 252.796Z" fill="#171717"/>
<path d="M205.748 489C205.747 490.597 205.273 492.158 204.385 493.485C203.497 494.813 202.236 495.847 200.761 496.458C199.285 497.069 197.662 497.228 196.096 496.917C194.529 496.605 193.091 495.836 191.961 494.707C190.832 493.578 190.063 492.139 189.751 490.573C189.439 489.007 189.599 487.383 190.209 485.908C190.82 484.432 191.854 483.171 193.182 482.283C194.509 481.395 196.07 480.921 197.667 480.92C198.728 480.919 199.779 481.128 200.76 481.533C201.741 481.939 202.632 482.534 203.382 483.285C204.133 484.035 204.728 484.926 205.134 485.907C205.54 486.888 205.748 487.939 205.748 489V489Z" fill="#171717"/>
<path d="M171.679 624.616C214.613 674.089 357.534 667.579 367.244 674.511C368.736 675.581 369.885 677.564 370.671 680.211C373.771 690.638 371.319 711.393 362.384 727.318C359.054 733.588 354.312 738.997 348.531 743.118C333.5 753.29 240.287 762.901 173.181 742.411C135.117 730.787 105.456 709.491 103.198 673.125C96.9539 572.625 170.628 537.283 170.628 537.283L171.679 624.616Z" fill="url(#paint8_linear_435_1376)"/>
<path d="M706.035 600.767L703.797 569.162L700.282 519.503L698.309 491.551L697.131 474.919L653.46 473.888L291.371 465.317L169.726 462.441L170.315 510.961L170.629 537.283L171.68 624.615L171.7 626.117" stroke="#171717" stroke-width="3" stroke-linecap="round" stroke-linejoin="round"/>
<path d="M173.093 742.716L173.888 807.573L719.299 788.163L710.531 664.25" stroke="#171717" stroke-width="3" stroke-linecap="round" stroke-linejoin="round"/>
<path d="M166.172 253.915L221.703 309.976L303.487 229.576L260.16 176.058L244.579 156.814L148.932 236.507L166.172 253.915Z" stroke="#171717" stroke-width="3" stroke-linecap="round" stroke-linejoin="round"/>
<path d="M646.979 214.752L594.904 327.266L748.753 425.584L817.106 330.565L831.921 309.977L659.36 187.998L646.979 214.752Z" stroke="#171717" stroke-width="3" stroke-linecap="round" stroke-linejoin="round"/>
<path d="M476.43 431.093C475.89 422.698 476.273 407.5 484.707 398.34C496.842 385.164 506.199 381.355 509.664 368.886C513.012 356.78 517.038 318.932 515.054 309.074C514.995 308.774 514.927 308.485 514.854 308.24" stroke="#171717" stroke-width="3" stroke-linecap="round" stroke-linejoin="round"/>
<path d="M477.088 437.14C477.088 437.14 476.676 434.764 476.44 431.092" stroke="#171717" stroke-width="3" stroke-linecap="round" stroke-linejoin="round"/>
<path d="M522.133 306.787C522.133 306.787 519.561 307.7 515.054 309.074C500.818 313.404 467.319 322.338 435.008 321.674C432.858 321.635 430.708 321.546 428.577 321.409" stroke="#171717" stroke-width="3" stroke-linecap="round" stroke-linejoin="round"/>
<path d="M141.656 328.307C194.604 427.567 267.081 454.066 326.356 455.307C345.791 455.644 365.19 453.509 384.086 448.955C405.986 443.722 422.052 436.613 428.586 432.991C429.375 432.546 430.116 432.02 430.795 431.42C448.295 416.074 439.062 346.926 435.017 321.674C434.094 315.891 433.436 312.406 433.436 312.406" stroke="#171717" stroke-width="3" stroke-linecap="round" stroke-linejoin="round"/>
<path d="M476.43 431.092H476.44C477.34 431.475 521.554 449.481 543.046 402.835C564.753 355.709 567.532 286.875 549.967 269.31C532.402 251.745 497.767 221.722 435.852 243.44C373.937 265.158 359.616 306.786 359.616 306.786C359.616 306.786 298.282 452.593 141.656 328.307" stroke="#171717" stroke-width="3" stroke-linecap="round" stroke-linejoin="round"/>
<path d="M170.628 537.283C170.628 537.283 96.9539 572.628 103.198 673.125C105.456 709.491 135.117 730.787 173.181 742.411C240.287 762.901 333.5 753.29 348.531 743.118C354.312 738.997 359.054 733.588 362.384 727.318C371.319 711.393 373.773 690.638 370.671 680.211C369.885 677.56 368.736 675.577 367.244 674.511C357.534 667.579 214.613 674.089 171.679 624.616" stroke="#171717" stroke-width="3" stroke-linecap="round" stroke-linejoin="round"/>
<path d="M698.309 491.551C698.309 491.551 764.816 508.644 767.82 567.091C770.569 620.599 760.889 620.452 738.71 641.246C738.709 641.229 738.705 641.213 738.7 641.197C738.435 638.929 729.5 564.244 703.8 569.162" stroke="#171717" stroke-width="3" stroke-linecap="round" stroke-linejoin="round"/>
<path d="M430.786 431.416L476.784 438.966L495.929 442.107L496.066 448.951L496.223 456.461" stroke="#171717" stroke-width="3" stroke-linecap="round" stroke-linejoin="round"/>
<path d="M384.082 448.941V448.951V456.707" stroke="#171717" stroke-width="3" stroke-linecap="round" stroke-linejoin="round"/>
<path d="M291.37 465.317C291.37 465.317 321.728 455.352 326.352 455.352" stroke="#171717" stroke-width="3" stroke-linecap="round" stroke-linejoin="round"/>
<path d="M496.479 448.941C496.479 448.941 571.665 447.203 653.459 473.879" stroke="#171717" stroke-width="3" stroke-linecap="round" stroke-linejoin="round"/>
<path d="M395.981 695.708C400.694 694.922 454.791 686.037 454.791 695.767C454.791 705.928 405.358 709.159 405.358 709.159C405.358 709.159 455.253 706.851 454.791 715.167C454.329 723.483 362.384 727.322 362.384 727.322" stroke="#171717" stroke-width="3" stroke-linecap="round" stroke-linejoin="round"/>
<path d="M395.657 695.766C395.671 695.765 395.684 695.761 395.697 695.756C395.734 695.752 395.77 695.745 395.805 695.736" stroke="#171717" stroke-width="3" stroke-linecap="round" stroke-linejoin="round"/>
<path d="M395.805 695.736C395.77 695.745 395.734 695.752 395.697 695.756" stroke="#171717" stroke-width="3" stroke-linecap="round" stroke-linejoin="round"/>
<path d="M395.805 695.736C395.864 695.735 395.924 695.725 395.981 695.707" stroke="#171717" stroke-width="3" stroke-linecap="round" stroke-linejoin="round"/>
<path d="M370.671 680.214C370.671 680.214 374.352 643.092 384.082 642.631C393.812 642.17 387.342 682.831 387.342 682.831C387.342 682.831 446.014 668.506 446.476 677.283C446.917 685.648 400.331 694.868 395.981 695.712" stroke="#171717" stroke-width="3" stroke-linecap="round" stroke-linejoin="round"/>
<path d="M715.843 642.622C715.813 642.623 715.783 642.626 715.754 642.632C714.282 642.71 694.282 643.832 678.947 642.18C669.403 641.159 661.667 639.068 661.323 635.003C660.95 630.703 669.04 627.826 678.947 625.903C694.066 622.977 713.408 622.303 713.408 622.303C713.408 622.303 693.624 622.489 678.888 620.221C670.14 618.876 663.169 616.677 663.169 613.064C663.169 609.519 670.13 607.026 678.969 605.288C687.951 603.677 697.018 602.588 706.126 602.028C711.626 601.655 715.374 601.518 715.374 601.518" stroke="#171717" stroke-width="3" stroke-linecap="round" stroke-linejoin="round"/>
<path d="M737.845 641.246C737.845 641.246 735.763 660.646 721.845 662.031C719.116 662.306 713.981 662.915 707.745 663.553C699.045 664.446 688.236 665.369 678.88 665.448C666.853 665.556 657.231 664.27 657.624 659.724C657.997 655.414 667.624 651.801 678.958 649.003C694.922 645.075 714.258 642.803 715.758 642.631" stroke="#171717" stroke-width="3" stroke-linecap="round" stroke-linejoin="round"/>
<path d="M170.314 510.961L698.691 519.611" stroke="#171717" stroke-width="3" stroke-linecap="round" stroke-linejoin="round"/>
<path d="M291.37 480.918V497.079L612.341 505.866V487.329L291.37 480.918Z" stroke="#171717" stroke-width="3" stroke-linecap="round" stroke-linejoin="round"/>
<path d="M205.748 489C205.747 490.597 205.273 492.158 204.385 493.485C203.497 494.813 202.236 495.847 200.761 496.458C199.285 497.069 197.662 497.228 196.096 496.917C194.529 496.605 193.091 495.836 191.961 494.707C190.832 493.578 190.063 492.139 189.751 490.573C189.439 489.007 189.599 487.383 190.209 485.908C190.82 484.432 191.854 483.171 193.182 482.283C194.509 481.395 196.07 480.921 197.667 480.92C198.728 480.919 199.779 481.128 200.76 481.533C201.741 481.939 202.632 482.534 203.382 483.285C204.133 484.035 204.728 484.926 205.134 485.907C205.54 486.888 205.748 487.939 205.748 489V489Z" stroke="#171717" stroke-width="3" stroke-linecap="round" stroke-linejoin="round"/>
<path d="M229.311 489C229.31 490.597 228.836 492.158 227.948 493.485C227.061 494.813 225.799 495.847 224.324 496.458C222.848 497.069 221.225 497.228 219.659 496.917C218.092 496.605 216.654 495.836 215.525 494.707C214.395 493.577 213.626 492.139 213.315 490.572C213.003 489.006 213.162 487.383 213.773 485.907C214.384 484.432 215.418 483.17 216.746 482.283C218.073 481.395 219.634 480.921 221.231 480.92C222.292 480.919 223.344 481.128 224.324 481.533C225.305 481.939 226.196 482.534 226.946 483.285C227.697 484.035 228.292 484.926 228.698 485.907C229.104 486.888 229.312 487.939 229.311 489V489Z" stroke="#171717" stroke-width="3" stroke-linecap="round" stroke-linejoin="round"/>
<path d="M251.892 489C251.891 490.597 251.417 492.157 250.529 493.484C249.642 494.811 248.38 495.846 246.905 496.456C245.43 497.067 243.807 497.226 242.241 496.914C240.675 496.603 239.236 495.834 238.107 494.705C236.978 493.576 236.209 492.137 235.898 490.572C235.586 489.006 235.745 487.382 236.356 485.907C236.966 484.432 238.001 483.171 239.328 482.283C240.655 481.395 242.216 480.921 243.812 480.92C244.874 480.919 245.925 481.128 246.905 481.533C247.886 481.939 248.777 482.534 249.527 483.285C250.278 484.035 250.873 484.926 251.279 485.907C251.685 486.888 251.893 487.939 251.892 489V489Z" stroke="#171717" stroke-width="3" stroke-linecap="round" stroke-linejoin="round"/>
<path d="M297.595 544.568H583.466" stroke="#171717" stroke-width="3" stroke-linecap="round" stroke-linejoin="round"/>
<path d="M345.959 597.518L485.492 597.449" stroke="#171717" stroke-width="3" stroke-linecap="round" stroke-linejoin="round"/>
<path d="M401.705 614.051L484 613.58" stroke="#171717" stroke-width="3" stroke-linecap="round" stroke-linejoin="round"/>
<path d="M268.377 572.039L277.949 591.44L299.362 594.552L283.87 609.652L287.522 630.986L268.377 620.913L249.222 630.986L252.874 609.652L237.381 594.552L258.794 591.44L268.377 572.039Z" stroke="#171717" stroke-width="3" stroke-linecap="round" stroke-linejoin="round"/>
<path d="M479.131 631.428H449.833C445.674 631.428 442.303 634.799 442.303 638.958V643.298C442.303 647.456 445.674 650.828 449.833 650.828H479.131C483.289 650.828 486.661 647.456 486.661 643.298V638.958C486.661 634.799 483.289 631.428 479.131 631.428Z" stroke="#171717" stroke-width="3" stroke-linecap="round" stroke-linejoin="round"/>
<path d="M678.878 666.194V745.131C678.878 747.876 677.788 750.508 675.847 752.448C673.906 754.389 671.275 755.479 668.53 755.479H519.256C516.512 755.479 513.88 754.389 511.939 752.448C509.999 750.508 508.908 747.876 508.908 745.131V583.37C508.908 580.625 509.999 577.993 511.939 576.053C513.88 574.112 516.512 573.022 519.256 573.021H668.53C671.275 573.022 673.906 574.112 675.847 576.053C677.788 577.993 678.878 580.625 678.878 583.37V604.8" stroke="#171717" stroke-width="3" stroke-linecap="round" stroke-linejoin="round"/>
<path d="M678.878 620.295V625.42" stroke="#171717" stroke-width="3" stroke-linecap="round" stroke-linejoin="round"/>
<path d="M646.979 214.752L817.107 330.565" stroke="#171717" stroke-width="3" stroke-linecap="round" stroke-linejoin="round"/>
<path d="M663.63 314.248L728.773 358.95" stroke="#171717" stroke-width="3" stroke-linecap="round" stroke-linejoin="round"/>
<path d="M677.032 340.924L698.691 355.248" stroke="#171717" stroke-width="3" stroke-linecap="round" stroke-linejoin="round"/>
<path d="M166.171 253.916L257.97 177.836" stroke="#171717" stroke-width="3" stroke-linecap="round" stroke-linejoin="round"/>
<path d="M228.633 233.397L257.97 209.137" stroke="#171717" stroke-width="3" stroke-linecap="round" stroke-linejoin="round"/>
<path d="M228.633 255.221L269.525 219.533" stroke="#171717" stroke-width="3" stroke-linecap="round" stroke-linejoin="round"/>
<path d="M257.97 249.675L271.95 237.373" stroke="#171717" stroke-width="3" stroke-linecap="round" stroke-linejoin="round"/>
<path d="M496.48 324.988L495.93 333.069" stroke="#171717" stroke-width="3" stroke-linecap="round" stroke-linejoin="round"/>
<path d="M459.2 324.939L458.709 333.127" stroke="#171717" stroke-width="3" stroke-linecap="round" stroke-linejoin="round"/>
<path d="M487.368 348.09C487.368 348.09 488.526 366.106 486.445 368.19C484.364 370.274 476.273 366.344 476.273 366.344" stroke="#171717" stroke-width="3" stroke-linecap="round" stroke-linejoin="round"/>
<path d="M450.177 383.877C450.177 383.877 452.249 393.371 458.257 396.601C464.265 399.831 470.49 394.981 470.49 394.981" stroke="#171717" stroke-width="3" stroke-linecap="round" stroke-linejoin="round"/>
<path d="M729.293 295.84L727.978 309.025L738.08 317.587L725.14 320.404L720.123 332.657L713.437 321.219L700.232 320.237L709.049 310.351L705.897 297.479L718.022 302.81L729.293 295.84Z" stroke="#171717" stroke-width="3" stroke-linecap="round" stroke-linejoin="round"/>
<path d="M211.324 243.361L209.341 252.796L215.988 259.777L206.405 260.808L201.82 269.281L197.873 260.484L188.399 258.746L195.547 252.276L194.28 242.723L202.635 247.524L211.324 243.361Z" stroke="#171717" stroke-width="3" stroke-linecap="round" stroke-linejoin="round"/>
<path d="M669.866 218.257C672.29 218.257 674.255 216.291 674.255 213.868C674.255 211.444 672.29 209.479 669.866 209.479C667.442 209.479 665.477 211.444 665.477 213.868C665.477 216.291 667.442 218.257 669.866 218.257Z" stroke="#171717" stroke-width="3" stroke-linecap="round" stroke-linejoin="round"/>
<path d="M678.878 642.877V648.699" stroke="#171717" stroke-width="3" stroke-linecap="round" stroke-linejoin="round"/>
<path d="M508.908 709.62L552.284 648.699L589.701 701.54L617.083 662.032L677.032 714.009" stroke="#171717" stroke-width="3" stroke-linecap="round" stroke-linejoin="round"/>
<path d="M593.893 617.655C593.893 621.222 592.836 624.709 590.854 627.675C588.872 630.641 586.055 632.953 582.759 634.318C579.464 635.683 575.837 636.041 572.339 635.345C568.84 634.649 565.626 632.931 563.104 630.409C560.582 627.886 558.864 624.672 558.168 621.174C557.472 617.675 557.829 614.049 559.194 610.753C560.559 607.457 562.871 604.641 565.837 602.659C568.803 600.677 572.29 599.619 575.857 599.619C578.226 599.618 580.572 600.084 582.761 600.99C584.949 601.896 586.938 603.224 588.613 604.899C590.288 606.574 591.617 608.563 592.523 610.752C593.429 612.941 593.894 615.286 593.893 617.655V617.655Z" stroke="#171717" stroke-width="3" stroke-linecap="round" stroke-linejoin="round"/>
<path d="M100.226 379.045C102.465 390.658 107.026 401.671 110.664 412.923C114.302 424.175 117.064 436.041 115.534 447.768C114.004 459.495 107.469 471.126 96.7342 476.081C85.9992 481.036 71.2092 477.234 66.2902 466.481C61.3712 455.728 70.7522 440.66 82.4642 442.309C88.8212 443.209 94.0222 448.336 96.3942 454.302C98.7662 460.268 98.6942 466.941 97.7402 473.29C96.1912 483.6 92.0002 494.1 83.5642 500.232C77.0282 504.983 68.7822 506.553 61.3262 509.668C54.2092 512.642 47.5382 517.289 43.5992 523.921C39.6602 530.553 38.9042 539.368 42.9842 545.915C47.0642 552.462 56.4322 555.601 63.0722 551.675C69.7122 547.749 70.9042 536.662 64.5642 532.268" stroke="#171717" stroke-width="3" stroke-linecap="round" stroke-linejoin="round"/>
<path d="M838.219 443.98C828.574 457.302 822.248 472.733 819.765 488.991C817.465 504.165 819.186 521.191 829.805 532.268C836.898 539.668 847.911 543.5 857.825 540.899C867.739 538.298 875.738 528.755 875.436 518.51C875.134 508.265 865.615 498.858 855.4 499.71C844.556 500.61 836.808 511.91 836.567 522.787C836.326 533.664 841.806 543.854 848.198 552.66C854.59 561.466 862.098 569.575 866.957 579.312C871.151 587.722 873.217 597.466 871.157 606.635C869.097 615.804 862.457 624.186 853.457 626.876C844.457 629.566 833.494 625.488 829.623 616.925C825.752 608.362 831.007 596.568 840.249 594.867" stroke="#171717" stroke-width="3" stroke-linecap="round" stroke-linejoin="round"/>
<path d="M782.947 605.847C790.618 588.402 791.585 568.742 785.663 550.629" stroke="#171717" stroke-width="3" stroke-linecap="round" stroke-linejoin="round"/>
<path d="M878.747 463.601L898.797 456.082" stroke="#171717" stroke-width="3" stroke-linecap="round" stroke-linejoin="round"/>
<path d="M811.101 377.168C826.193 363.371 837.336 345.802 843.382 326.268" stroke="#171717" stroke-width="3" stroke-linecap="round" stroke-linejoin="round"/>
<path d="M902.583 474.793L920.262 470.666" stroke="#171717" stroke-width="3" stroke-linecap="round" stroke-linejoin="round"/>
<path d="M593.863 232.699L582.428 215.027" stroke="#171717" stroke-width="3" stroke-linecap="round" stroke-linejoin="round"/>
<path d="M580.35 230.618L598.023 216.064" stroke="#171717" stroke-width="3" stroke-linecap="round" stroke-linejoin="round"/>
<path d="M600.08 355.461C595.545 354.435 591.348 352.264 587.89 349.155C584.432 346.046 581.829 342.103 580.328 337.701" stroke="#171717" stroke-width="3" stroke-linecap="round" stroke-linejoin="round"/>
<path d="M374.5 229.469L356.832 232.617" stroke="#171717" stroke-width="3" stroke-linecap="round" stroke-linejoin="round"/>
<path d="M365.417 239.946L363.282 221.24" stroke="#171717" stroke-width="3" stroke-linecap="round" stroke-linejoin="round"/>
<path d="M411.941 166.167L423.376 151.613" stroke="#171717" stroke-width="3" stroke-linecap="round" stroke-linejoin="round"/>
<path d="M423.249 165.257L410.677 152.881" stroke="#171717" stroke-width="3" stroke-linecap="round" stroke-linejoin="round"/>
<path d="M156.04 271.301L141.477 253.637" stroke="#171717" stroke-width="3" stroke-linecap="round" stroke-linejoin="round"/>
<path d="M70.9668 417.74L73.0458 403.186" stroke="#171717" stroke-width="3" stroke-linecap="round" stroke-linejoin="round"/>
<path d="M77.2054 414.62L63.6904 409.42" stroke="#171717" stroke-width="3" stroke-linecap="round" stroke-linejoin="round"/>
<path d="M88.6404 542.487L84.4824 534.17" stroke="#171717" stroke-width="3" stroke-linecap="round" stroke-linejoin="round"/>
<path d="M79.3477 542.582L91.8647 534.33" stroke="#171717" stroke-width="3" stroke-linecap="round" stroke-linejoin="round"/>
<path d="M93.3174 696.065C84.4346 679.177 81.7143 659.722 85.6244 641.045" stroke="#171717" stroke-width="3" stroke-linecap="round" stroke-linejoin="round"/>
<path d="M484.087 456.207L484.425 448.93" stroke="#171717" stroke-width="3" stroke-linecap="round" stroke-linejoin="round"/>
<path d="M468.366 456.547L468.715 448.23" stroke="#171717" stroke-width="3" stroke-linecap="round" stroke-linejoin="round"/>
<path d="M447.286 455.511V446.848" stroke="#171717" stroke-width="3" stroke-linecap="round" stroke-linejoin="round"/>
<path d="M427.535 454.124C428.315 451.07 428.549 447.903 428.228 444.768" stroke="#171717" stroke-width="3" stroke-linecap="round" stroke-linejoin="round"/>
<path d="M410.964 454.478L412 446.16" stroke="#171717" stroke-width="3" stroke-linecap="round" stroke-linejoin="round"/>
<path d="M320.356 750.29C338.246 728.136 347.346 700.168 345.918 671.729" stroke="#171717" stroke-width="3" stroke-linecap="round" stroke-linejoin="round"/>
<path d="M298.553 724.441L294.73 715.719" stroke="#171717" stroke-width="3" stroke-linecap="round" stroke-linejoin="round"/>
<path d="M302.688 687.782C304.729 686.166 307.153 685.107 309.724 684.707" stroke="#171717" stroke-width="3" stroke-linecap="round" stroke-linejoin="round"/>
<path d="M252.427 734.111L259.82 730.877" stroke="#171717" stroke-width="3" stroke-linecap="round" stroke-linejoin="round"/>
<path d="M262.654 700.92L269.203 695.473" stroke="#171717" stroke-width="3" stroke-linecap="round" stroke-linejoin="round"/>
<path d="M245.582 681.831L240.121 675.293" stroke="#171717" stroke-width="3" stroke-linecap="round" stroke-linejoin="round"/>
<path d="M232.687 717.859L228.045 710.48" stroke="#171717" stroke-width="3" stroke-linecap="round" stroke-linejoin="round"/>
<path d="M200.173 733.589L207.561 728.039" stroke="#171717" stroke-width="3" stroke-linecap="round" stroke-linejoin="round"/>
<path d="M203.852 691.007L210.792 687.74L210.382 686.518" stroke="#171717" stroke-width="3" stroke-linecap="round" stroke-linejoin="round"/>
<path d="M210.429 659.754C208.228 663.211 205.189 666.055 201.594 668.022" stroke="#171717" stroke-width="3" stroke-linecap="round" stroke-linejoin="round"/>
<path d="M177.646 709.558C175.407 707.305 173.847 704.467 173.146 701.369" stroke="#171717" stroke-width="3" stroke-linecap="round" stroke-linejoin="round"/>
<path d="M172.2 674.647L168.272 666.223" stroke="#171717" stroke-width="3" stroke-linecap="round" stroke-linejoin="round"/>
<path d="M133.709 690.247L139.729 685.646" stroke="#171717" stroke-width="3" stroke-linecap="round" stroke-linejoin="round"/>
<path d="M152.765 647.478L161.504 642.328" stroke="#171717" stroke-width="3" stroke-linecap="round" stroke-linejoin="round"/>
<path d="M124.545 650L121.818 638.9" stroke="#171717" stroke-width="3" stroke-linecap="round" stroke-linejoin="round"/>
<path d="M145.646 613.492C147.586 609.85 150.289 606.669 153.571 604.166L153.01 602.939" stroke="#171717" stroke-width="3" stroke-linecap="round" stroke-linejoin="round"/>
<path d="M151.125 579.016L143.025 572.393" stroke="#171717" stroke-width="3" stroke-linecap="round" stroke-linejoin="round"/>
<path d="M746.334 589.5L755.112 583.955" stroke="#171717" stroke-width="3" stroke-linecap="round" stroke-linejoin="round"/>
<path d="M745.438 549.755L743 538.232" stroke="#171717" stroke-width="3" stroke-linecap="round" stroke-linejoin="round"/>
<path d="M726.421 554.972L718.121 552.139" stroke="#171717" stroke-width="3" stroke-linecap="round" stroke-linejoin="round"/>
<path d="M751.044 628.753C748.328 614.17 742.558 600.326 734.114 588.131C730.462 582.864 725.865 577.637 719.623 576.184" stroke="#171717" stroke-width="3" stroke-linecap="round" stroke-linejoin="round"/>
<path d="M561.639 465.561L567.531 462.098" stroke="#171717" stroke-width="3" stroke-linecap="round" stroke-linejoin="round"/>
<path d="M533.271 463.122L533.5 464.103C531.317 461.157 529.024 458.299 526.619 455.527" stroke="#171717" stroke-width="3" stroke-linecap="round" stroke-linejoin="round"/>
<path d="M499.463 464.391C500.871 462.771 502.737 461.617 504.815 461.08" stroke="#171717" stroke-width="3" stroke-linecap="round" stroke-linejoin="round"/>
<path d="M368.977 462.783L359.894 457.717" stroke="#171717" stroke-width="3" stroke-linecap="round" stroke-linejoin="round"/>
<path d="M606.413 472.056C604.641 470.541 603.129 468.747 601.936 466.744" stroke="#171717" stroke-width="3" stroke-linecap="round" stroke-linejoin="round"/>
<path d="M722.423 523.428C720.29 523.588 718.15 523.232 716.185 522.389" stroke="#171717" stroke-width="3" stroke-linecap="round" stroke-linejoin="round"/>
<g opacity="0.1">
<path d="M513.4 305.141C507.178 305.779 501.565 308.007 495.56 309.676C489.96 311.232 484.277 312.519 478.579 313.651C467.111 315.83 455.45 316.825 443.779 316.621C437.205 316.57 431.785 323.312 433.779 329.75C438.655 345.546 440.35 362.152 438.766 378.608C437.953 386.615 436.311 394.517 433.866 402.186C431.341 410.302 427.039 417.549 424.251 425.504C422.551 430.358 425.786 436.018 430.303 437.835C435.539 439.941 440.081 437.813 443.357 433.558C448.793 426.499 451.927 416.319 454.539 407.885C457.338 398.616 459.196 389.089 460.084 379.448C461.878 360.805 459.729 341.993 453.777 324.235L443.777 337.364C456.898 336.894 469.942 335.151 482.726 332.158C494.667 329.374 509.069 325.624 518.6 317.704C523.319 313.783 519.611 304.504 513.4 305.141V305.141Z" fill="#171717"/>
</g>
<g opacity="0.1">
<path d="M163.33 538.976C150.29 543.089 140.71 557.905 133.33 568.695C125.509 580.276 118.98 592.679 113.86 605.682C108.707 618.601 105.128 632.093 103.2 645.868C101.139 660.438 100.531 675.533 104.632 689.837C112.932 718.797 138.501 733.769 165.521 742.531C195.06 751.97 225.85 756.915 256.859 757.2C274.56 757.35 292.244 756.048 309.733 753.308C318.427 751.975 327.051 750.265 335.606 748.179C344.355 746.041 353.646 744.071 361.452 739.46C369.737 734.567 366.917 718.917 356.2 720.069C348.522 720.894 341.458 723.342 334.011 725.28C326.967 727.113 319.863 728.689 312.698 730.009C299.363 732.437 285.871 733.904 272.326 734.401C244.196 735.541 216.048 732.617 188.753 725.718C167.153 720.218 140.313 713.07 129.175 691.666C118.303 670.773 123.931 642.602 130.428 621.245C136.454 601.447 145.986 582.891 158.57 566.462C163.299 560.306 168.924 554.437 171.345 546.992C172.861 542.331 167.959 537.517 163.33 538.977V538.976Z" fill="#171717"/>
</g>
</g>
</g>
<defs>
<filter id="filter0_d_435_1376" x="-4" y="0" width="968" height="968" filterUnits="userSpaceOnUse" color-interpolation-filters="sRGB">
<feFlood flood-opacity="0" result="BackgroundImageFix"/>
<feColorMatrix in="SourceAlpha" type="matrix" values="0 0 0 0 0 0 0 0 0 0 0 0 0 0 0 0 0 0 127 0" result="hardAlpha"/>
<feOffset dy="4"/>
<feGaussianBlur stdDeviation="2"/>
<feComposite in2="hardAlpha" operator="out"/>
<feColorMatrix type="matrix" values="0 0 0 0 0 0 0 0 0 0 0 0 0 0 0 0 0 0 0.25 0"/>
<feBlend mode="normal" in2="BackgroundImageFix" result="effect1_dropShadow_435_1376"/>
<feBlend mode="normal" in="SourceGraphic" in2="effect1_dropShadow_435_1376" result="shape"/>
</filter>
<linearGradient id="paint0_linear_435_1376" x1="733.292" y1="491.551" x2="732.468" y2="640.426" gradientUnits="userSpaceOnUse">
<stop stop-color="#B7B7B7"/>
<stop offset="1" stop-color="#6F6F6F"/>
</linearGradient>
<linearGradient id="paint1_linear_435_1376" x1="706.003" y1="214.752" x2="705.488" y2="424.435" gradientUnits="userSpaceOnUse">
<stop stop-color="#B7B7B7"/>
<stop offset="1" stop-color="#6F6F6F"/>
</linearGradient>
<linearGradient id="paint2_linear_435_1376" x1="435.007" y1="462.443" x2="434.991" y2="519.302" gradientUnits="userSpaceOnUse">
<stop stop-color="#B7B7B7"/>
<stop offset="1" stop-color="#6F6F6F"/>
</linearGradient>
<linearGradient id="paint3_linear_435_1376" x1="593.937" y1="573.021" x2="593.636" y2="713.24" gradientUnits="userSpaceOnUse">
<stop stop-color="#B7B7B7"/>
<stop offset="1" stop-color="#6F6F6F"/>
</linearGradient>
<linearGradient id="paint4_linear_435_1376" x1="472.415" y1="431.414" x2="472.402" y2="473.658" gradientUnits="userSpaceOnUse">
<stop stop-color="#B7B7B7"/>
<stop offset="1" stop-color="#6F6F6F"/>
</linearGradient>
<linearGradient id="paint5_linear_435_1376" x1="464.482" y1="631.428" x2="464.46" y2="650.722" gradientUnits="userSpaceOnUse">
<stop stop-color="#B7B7B7"/>
<stop offset="1" stop-color="#6F6F6F"/>
</linearGradient>
<linearGradient id="paint6_linear_435_1376" x1="204.546" y1="156.814" x2="204.327" y2="253.386" gradientUnits="userSpaceOnUse">
<stop stop-color="#B7B7B7"/>
<stop offset="1" stop-color="#6F6F6F"/>
</linearGradient>
<linearGradient id="paint7_linear_435_1376" x1="221.235" y1="480.92" x2="221.194" y2="496.984" gradientUnits="userSpaceOnUse">
<stop stop-color="#B7B7B7"/>
<stop offset="1" stop-color="#6F6F6F"/>
</linearGradient>
<linearGradient id="paint8_linear_435_1376" x1="237.386" y1="537.283" x2="236.935" y2="753.312" gradientUnits="userSpaceOnUse">
<stop stop-color="#B7B7B7"/>
<stop offset="1" stop-color="#6F6F6F"/>
</linearGradient>
<clipPath id="clip0_435_1376">
<rect width="884" height="660" fill="white" transform="translate(38 150)"/>
</clipPath>
</defs>
</svg>
